<svg width="613" height="330" viewBox="0 0 613 330" fill="none" xmlns="http://www.w3.org/2000/svg">
<path d="M232.8 308.044C235.292 303.284 234.461 297.139 230.68 292.389C229.082 290.38 227.184 288.876 224.928 287.833C227.396 286.462 229.344 284.401 230.535 281.86C233.622 275.271 230.673 266.954 223.82 262.924C220.12 260.73 215.902 260.069 211.911 260.985C207.916 261.901 204.692 264.298 202.831 267.732C201.631 269.947 201.103 272.468 201.28 275.02C199.175 273.699 196.877 272.931 194.32 272.688C188.276 272.116 182.674 274.775 180.048 279.463C178.171 282.813 177.849 286.753 179.136 290.557C180.425 294.361 183.165 297.557 186.853 299.555C189.676 301.085 192.814 301.764 195.888 301.537L195.058 303.071C194.254 304.555 193.033 305.791 191.531 306.643L188.329 308.459C187.677 308.831 187.317 309.499 187.369 310.249C187.42 310.998 187.872 311.673 188.576 312.055L200.84 318.699C201.545 319.081 202.356 319.091 203.013 318.725C203.669 318.359 204.033 317.693 203.987 316.943L203.76 313.269C203.653 311.545 204.023 309.848 204.827 308.364L205.658 306.831C207.147 309.53 209.429 311.787 212.253 313.317C215.94 315.315 220.113 315.864 224.005 314.867C227.895 313.868 231.019 311.446 232.8 308.044ZM222.584 310.848C219.805 311.56 216.823 311.167 214.19 309.741C213.65 309.448 213.431 308.811 213.698 308.318C213.966 307.823 214.619 307.66 215.159 307.953C217.266 309.094 219.652 309.408 221.874 308.838C224.097 308.268 225.883 306.883 226.902 304.937C227.162 304.44 227.813 304.267 228.356 304.554L228.369 304.561C228.904 304.85 229.126 305.48 228.867 305.974C227.594 308.404 225.363 310.135 222.584 310.848Z" fill="black" stroke="white"/>
<path d="M193.776 58.996C194.806 53.7228 192.257 48.0701 187.278 44.5955C185.173 43.1262 182.925 42.2263 180.465 41.8702C182.44 39.8517 183.719 37.3213 184.136 34.5461C185.215 27.3494 180.016 20.2196 172.299 18.312C168.126 17.2641 163.895 17.8333 160.331 19.8498C156.763 21.8679 154.356 25.085 153.553 28.9073C153.034 31.3722 153.247 33.9391 154.144 36.3349C151.75 35.6693 149.329 35.5882 146.809 36.0849C140.853 37.2599 136.242 41.4069 135.063 46.6487C134.219 50.3952 135.034 54.2637 137.353 57.5426C139.674 60.8207 143.211 63.1025 147.315 63.9657C150.458 64.6265 153.659 64.3821 156.541 63.2882L156.182 64.9949C155.835 66.6468 155.018 68.1791 153.821 69.4249L151.27 72.0786C150.751 72.621 150.597 73.3638 150.86 74.0676C151.123 74.7713 151.749 75.2894 152.533 75.4543L166.182 78.3246C166.967 78.4897 167.747 78.2673 168.273 77.7293C168.797 77.1911 168.955 76.4492 168.697 75.7434L167.432 72.2873C166.838 70.6649 166.708 68.9334 167.055 67.2815L167.414 65.5748C169.612 67.737 172.442 69.2498 175.586 69.9109C179.689 70.7738 183.846 70.1101 187.291 68.0444C190.735 65.9776 193.039 62.7648 193.776 58.996ZM184.784 64.5972C182.323 66.0728 179.353 66.5466 176.423 65.9304C175.821 65.8039 175.429 65.2559 175.545 64.7066C175.66 64.1563 176.24 63.8137 176.841 63.9401C179.186 64.4331 181.562 64.0537 183.53 62.8734C185.498 61.6933 186.814 59.8564 187.236 57.7006C187.343 57.1497 187.918 56.7987 188.521 56.9182L188.535 56.9212C189.13 57.0462 189.522 57.586 189.415 58.133C188.888 60.8257 187.244 63.1213 184.784 64.5972Z" fill="black" stroke="white"/>
<path d="M483.563 246.468C480.521 242.04 474.701 239.9 468.734 241.021C466.211 241.494 463.994 242.469 462.017 243.975C461.959 241.152 461.049 238.467 459.36 236.225C454.979 230.414 446.248 229.132 439.482 233.305C435.812 235.549 433.255 238.968 432.198 242.924C431.14 246.884 431.75 250.855 433.916 254.106C435.312 256.202 437.294 257.848 439.632 258.885C437.48 260.128 435.726 261.8 434.316 263.946C430.983 269.021 430.714 275.216 433.63 279.729C435.713 282.955 439.045 285.083 443.01 285.724C446.975 286.364 451.081 285.437 454.572 283.112C457.244 281.331 459.312 278.875 460.549 276.052L461.516 277.503C462.452 278.908 462.973 280.565 463.025 282.291L463.132 285.971C463.156 286.721 463.578 287.351 464.265 287.656C464.951 287.961 465.759 287.878 466.426 287.434L478.034 279.701C478.702 279.257 479.09 278.544 479.074 277.792C479.056 277.041 478.638 276.408 477.953 276.098L474.601 274.581C473.026 273.869 471.699 272.749 470.764 271.344L469.797 269.892C472.879 269.838 475.941 268.877 478.615 267.096C482.105 264.772 484.542 261.34 485.481 257.434C486.417 253.528 485.737 249.634 483.563 246.468ZM481.264 256.809C480.594 259.599 478.852 262.051 476.36 263.711C475.848 264.052 475.182 263.948 474.871 263.481C474.559 263.013 474.721 262.359 475.232 262.018C477.226 260.69 478.62 258.728 479.155 256.497C479.691 254.266 479.302 252.04 478.058 250.229C477.741 249.766 477.892 249.111 478.4 248.764L478.412 248.756C478.918 248.419 479.578 248.517 479.894 248.976C481.446 251.239 481.933 254.02 481.264 256.809Z" fill="black" stroke="white"/>
<path d="M564.896 66.1232C565.236 60.7611 561.978 55.4853 556.591 52.6835C554.314 51.4986 551.968 50.8969 549.483 50.8617C551.18 48.6049 552.122 45.9304 552.176 43.1246C552.316 35.8487 546.239 29.4509 538.34 28.5569C534.067 28.0572 529.945 29.1685 526.671 31.6289C523.395 34.0912 521.424 37.5924 521.121 41.4866C520.925 43.9978 521.468 46.5156 522.668 48.7753C520.208 48.4248 517.796 48.6574 515.361 49.4757C509.607 51.4107 505.571 56.119 505.079 61.4693C504.727 65.2933 506.035 69.0241 508.759 71.9757C511.484 74.9263 515.286 76.7317 519.468 77.0571C522.669 77.3062 525.812 76.65 528.529 75.1927L528.393 76.9314C528.262 78.6144 527.65 80.2395 526.625 81.6295L524.438 84.5907C523.993 85.1956 523.937 85.9521 524.289 86.616C524.64 87.2798 525.328 87.7127 526.126 87.7748L540.032 88.8567C540.832 88.9189 541.577 88.5975 542.028 87.9961C542.478 87.3947 542.54 86.6385 542.192 85.972L540.492 82.7084C539.692 81.1764 539.34 79.4762 539.471 77.7933L539.606 76.0545C542.065 77.9145 545.067 79.0487 548.27 79.2979C552.45 79.6231 556.486 78.4276 559.636 75.934C562.783 73.4393 564.652 69.9557 564.896 66.1232ZM556.703 72.8398C554.454 74.6211 551.57 75.4749 548.585 75.2426C547.972 75.195 547.512 74.7022 547.556 74.1426C547.6 73.5819 548.13 73.1673 548.743 73.2149C551.131 73.4008 553.439 72.7173 555.237 71.2926C557.036 69.8679 558.104 67.8764 558.243 65.6841C558.279 65.1239 558.803 64.7016 559.416 64.7421L559.431 64.7433C560.037 64.7904 560.496 65.2749 560.461 65.8311C560.285 68.5694 558.952 71.0584 556.703 72.8398Z" fill="black" stroke="white"/>
<path d="M564 217L534 247L564 277L594 247L564 217Z" fill="black" stroke="white"/>
<path d="M98 240L68 270L98 300L128 270L98 240Z" fill="black" stroke="white"/>
<path d="M360 28L330 58L360 88L390 58L360 28Z" fill="black" stroke="white"/>
<path d="M79.3194 153.13L117.287 159.394L118.456 120.931C118.594 116.402 116.95 111.765 113.886 108.041L113.368 107.412C107.274 100.005 97.08 98.3226 90.5991 103.655C87.034 106.588 85.1861 111.214 85.5765 116.227L85.9742 121.334L81.0398 119.96C76.1954 118.611 71.3 119.533 67.7351 122.466C61.254 127.798 60.9401 138.125 67.034 145.532L67.5522 146.162C70.616 149.886 74.8488 152.392 79.3194 153.13Z" fill="black" stroke="white"/>
<path d="M199.017 190.888L208.89 228.081L244.444 213.358C248.63 211.624 252.183 208.222 254.321 203.9L254.682 203.169C258.935 194.571 256.284 184.585 248.761 180.864C244.623 178.817 239.646 179.031 235.235 181.445L230.742 183.904L229.969 178.841C229.211 173.87 226.361 169.784 222.223 167.737C214.7 164.016 205.154 167.97 200.902 176.567L200.54 177.298C198.402 181.62 197.854 186.509 199.017 190.888Z" fill="black" stroke="white"/>
<path d="M270.36 108.384L290.591 141.118L320.35 116.721C323.854 113.848 326.268 109.562 327.062 104.805L327.196 104.001C328.774 94.54 323.342 85.7511 315.064 84.3705C310.51 83.611 305.809 85.2584 302.287 88.8476L298.699 92.5035L296.492 87.8811C294.325 83.3431 290.413 80.2593 285.859 79.4999C277.581 78.1192 269.591 84.6696 268.013 94.1306L267.879 94.935C267.086 99.6917 267.978 104.529 270.36 108.384Z" fill="black" stroke="white"/>
<path d="M583.168 85.7486C582.757 85.3321 582.829 85.3705 582.829 85.3705C582.619 85.1356 582.317 85 581.999 85C581.682 85 581.382 85.1356 581.172 85.3705C581.172 85.3705 581.244 85.3321 580.832 85.7486C570.692 96.1109 552 101.98 552 116.896C552 117.662 552.037 118.461 552.114 119.291C552.931 128.048 559.94 133.016 567.512 133.016C571.811 133.016 575.895 130.421 578.626 126.658C577.345 133.933 575.702 142.006 575.241 143.008C574.454 144.715 575.397 145 575.868 145H588.132C588.603 145 589.545 144.715 588.759 143.008C588.3 142.006 586.653 133.933 585.375 126.658C588.105 130.421 592.189 133.016 596.488 133.016C604.062 133.016 611.069 128.048 611.888 119.291C611.964 118.461 612 117.662 612 116.896C612 101.98 593.308 96.1109 583.168 85.7486Z" fill="black" stroke="white"/>
<path d="M471.168 14.7486C470.757 14.3321 470.829 14.3705 470.829 14.3705C470.619 14.1356 470.317 14 469.999 14C469.682 14 469.382 14.1356 469.172 14.3705C469.172 14.3705 469.244 14.3321 468.832 14.7486C458.692 25.1109 440 30.9803 440 45.8963C440 46.6623 440.037 47.4607 440.114 48.2913C440.931 57.0483 447.94 62.0161 455.512 62.0161C459.811 62.0161 463.895 59.4209 466.626 55.6581C465.345 62.9326 463.702 71.0055 463.241 72.0078C462.454 73.7151 463.397 74 463.868 74H476.132C476.603 74 477.545 73.7151 476.759 72.0078C476.3 71.0055 474.653 62.9326 473.375 55.6581C476.105 59.4209 480.189 62.0161 484.488 62.0161C492.062 62.0161 499.069 57.0483 499.888 48.2913C499.964 47.4607 500 46.6623 500 45.8963C500 30.9803 481.308 25.1109 471.168 14.7486Z" fill="black" stroke="white"/>
<path d="M32.1678 188.749C31.7574 188.332 31.8287 188.371 31.8287 188.371C31.6187 188.136 31.3167 188 30.9995 188C30.6824 188 30.3816 188.136 30.1716 188.371C30.1716 188.371 30.2444 188.332 29.8325 188.749C19.6921 199.111 1 204.98 1 219.896C1 220.662 1.03713 221.461 1.11398 222.291C1.93076 231.048 8.93957 236.016 16.5125 236.016C20.811 236.016 24.8954 233.421 27.6261 229.658C26.3451 236.933 24.7019 245.006 24.2405 246.008C23.4537 247.715 24.3971 248 24.868 248H37.1321C37.6031 248 38.5448 247.715 37.7595 246.008C37.2995 245.006 35.6534 236.933 34.3754 229.658C37.1047 233.421 41.189 236.016 45.4877 236.016C53.062 236.016 60.0692 231.048 60.8876 222.291C60.9643 221.461 61 220.662 61 219.896C61.0003 204.98 42.3081 199.111 32.1678 188.749Z" fill="black" stroke="white"/>
<path d="M426.134 113.358C425.911 112.818 425.963 112.88 425.963 112.88C425.857 112.583 425.629 112.344 425.335 112.224C425.042 112.104 424.712 112.116 424.429 112.254C424.429 112.254 424.511 112.246 423.972 112.476C410.668 118.239 391.144 116.61 385.508 130.42C385.218 131.13 384.951 131.883 384.708 132.681C382.156 141.097 386.768 148.345 393.78 151.207C397.76 152.831 402.522 151.971 406.472 149.519C402.537 155.77 397.965 162.624 397.159 163.378C395.786 164.661 396.552 165.281 396.988 165.459L408.343 170.093C408.779 170.271 409.758 170.363 409.676 168.486C409.629 167.384 411.155 159.287 412.721 152.069C413.826 156.584 416.627 160.53 420.607 162.155C427.62 165.016 435.985 163.065 440.051 155.266C440.436 154.526 440.771 153.8 441.06 153.091C446.696 139.281 431.607 126.784 426.134 113.358Z" fill="black" stroke="white"/>
<path d="M341.83 230.888C341.309 230.624 341.389 230.637 341.389 230.637C341.115 230.481 340.786 230.448 340.485 230.549C340.184 230.65 339.942 230.874 339.817 231.163C339.817 231.163 339.874 231.103 339.616 231.629C333.285 244.672 317.42 256.167 322.15 270.313C322.393 271.04 322.682 271.785 323.018 272.548C326.57 280.594 334.792 283.083 341.974 280.681C346.051 279.317 349.101 275.561 350.498 271.126C351.59 278.432 352.592 286.609 352.472 287.706C352.268 289.574 353.253 289.545 353.699 289.396L365.33 285.506C365.777 285.357 366.58 284.788 365.293 283.418C364.539 282.613 360.418 275.479 356.899 268.986C360.68 271.689 365.377 272.855 369.454 271.491C376.637 269.089 381.707 262.155 379.706 253.591C379.515 252.779 379.296 252.01 379.053 251.284C374.322 237.138 354.734 237.5 341.83 230.888Z" fill="black" stroke="white"/>
</svg>
