<svg width="517" height="401" viewBox="0 0 517 401" fill="none" xmlns="http://www.w3.org/2000/svg">
<path d="M171.469 253.713C173.961 248.953 173.13 242.808 169.349 238.057C167.751 236.049 165.852 234.545 163.597 233.502C166.065 232.13 168.013 230.07 169.204 227.529C172.291 220.939 169.342 212.623 162.489 208.593C158.789 206.398 154.571 205.737 150.58 206.653C146.585 207.57 143.361 209.967 141.5 213.401C140.3 215.616 139.772 218.137 139.948 220.689C137.844 219.368 135.546 218.599 132.989 218.357C126.945 217.784 121.343 220.444 118.717 225.131C116.84 228.481 116.518 232.422 117.805 236.226C119.094 240.03 121.834 243.226 125.522 245.224C128.345 246.754 131.483 247.432 134.557 247.206L133.727 248.739C132.922 250.224 131.702 251.459 130.2 252.312L126.998 254.128C126.346 254.5 125.986 255.168 126.038 255.917C126.089 256.667 126.541 257.342 127.245 257.723L139.509 264.368C140.214 264.75 141.025 264.759 141.682 264.393C142.338 264.027 142.702 263.361 142.656 262.611L142.429 258.938C142.322 257.213 142.692 255.517 143.496 254.033L144.327 252.499C145.816 255.198 148.098 257.456 150.922 258.986C154.609 260.983 158.782 261.533 162.674 260.536C166.563 259.537 169.688 257.115 171.469 253.713ZM161.253 256.517C158.474 257.229 155.492 256.836 152.859 255.409C152.319 255.117 152.1 254.48 152.367 253.986C152.635 253.492 153.288 253.329 153.828 253.621C155.935 254.762 158.321 255.077 160.543 254.507C162.766 253.937 164.551 252.552 165.57 250.606C165.831 250.109 166.482 249.936 167.025 250.223L167.038 250.229C167.573 250.519 167.795 251.148 167.536 251.642C166.263 254.072 164.032 255.804 161.253 256.517Z" fill="#00DD4A" stroke="black"/>
<path d="M168.776 46.996C169.806 41.7228 167.257 36.0701 162.278 32.5955C160.173 31.1262 157.925 30.2263 155.465 29.8702C157.44 27.8517 158.719 25.3213 159.136 22.5461C160.215 15.3494 155.016 8.2196 147.299 6.31198C143.126 5.26412 138.895 5.83333 135.331 7.84983C131.763 9.86792 129.356 13.085 128.553 16.9073C128.034 19.3722 128.247 21.9391 129.144 24.3349C126.75 23.6693 124.329 23.5882 121.809 24.0849C115.853 25.2599 111.242 29.4069 110.063 34.6487C109.219 38.3952 110.034 42.2637 112.353 45.5426C114.674 48.8207 118.211 51.1025 122.315 51.9657C125.458 52.6265 128.659 52.3821 131.541 51.2882L131.182 52.9949C130.835 54.6468 130.018 56.1791 128.821 57.4249L126.27 60.0786C125.751 60.621 125.597 61.3638 125.86 62.0676C126.123 62.7713 126.749 63.2894 127.533 63.4543L141.182 66.3246C141.967 66.4897 142.747 66.2673 143.273 65.7293C143.797 65.1911 143.955 64.4492 143.697 63.7434L142.432 60.2873C141.838 58.6649 141.708 56.9334 142.055 55.2815L142.414 53.5748C144.612 55.737 147.442 57.2498 150.586 57.9109C154.689 58.7738 158.846 58.1101 162.291 56.0444C165.735 53.9776 168.039 50.7648 168.776 46.996ZM159.784 52.5972C157.323 54.0728 154.353 54.5466 151.423 53.9304C150.821 53.8039 150.429 53.2559 150.545 52.7066C150.66 52.1563 151.24 51.8137 151.841 51.9401C154.186 52.4331 156.562 52.0537 158.53 50.8734C160.498 49.6933 161.814 47.8564 162.236 45.7006C162.343 45.1497 162.918 44.7987 163.521 44.9182L163.535 44.9212C164.13 45.0462 164.522 45.586 164.415 46.133C163.888 48.8257 162.244 51.1213 159.784 52.5972Z" fill="#00DD4A" stroke="black"/>
<path d="M294.563 107.468C291.521 103.04 285.701 100.9 279.734 102.021C277.211 102.494 274.994 103.469 273.017 104.975C272.959 102.152 272.049 99.4665 270.36 97.2254C265.979 91.4145 257.248 90.1324 250.482 94.3047C246.812 96.5491 244.255 99.9678 243.198 103.924C242.14 107.884 242.75 111.855 244.916 115.106C246.312 117.202 248.294 118.848 250.632 119.885C248.48 121.128 246.726 122.8 245.316 124.946C241.983 130.021 241.714 136.216 244.63 140.729C246.713 143.955 250.045 146.083 254.01 146.724C257.975 147.364 262.081 146.437 265.572 144.112C268.244 142.331 270.312 139.875 271.549 137.052L272.516 138.503C273.452 139.908 273.973 141.565 274.025 143.291L274.132 146.971C274.156 147.721 274.578 148.351 275.265 148.656C275.951 148.961 276.759 148.878 277.426 148.434L289.034 140.701C289.702 140.257 290.09 139.544 290.074 138.792C290.056 138.041 289.638 137.408 288.953 137.098L285.601 135.581C284.026 134.869 282.699 133.749 281.764 132.344L280.797 130.892C283.879 130.838 286.941 129.877 289.615 128.096C293.105 125.772 295.542 122.34 296.481 118.434C297.417 114.528 296.737 110.634 294.563 107.468ZM292.264 117.809C291.594 120.599 289.852 123.051 287.36 124.711C286.848 125.052 286.182 124.948 285.871 124.481C285.559 124.013 285.721 123.359 286.232 123.018C288.226 121.69 289.62 119.728 290.155 117.497C290.691 115.266 290.302 113.04 289.058 111.229C288.741 110.766 288.892 110.111 289.4 109.764L289.412 109.756C289.918 109.419 290.578 109.517 290.894 109.976C292.446 112.239 292.933 115.02 292.264 117.809Z" fill="#00DD4A" stroke="black"/>
<path d="M292.144 363.247C294.62 358.479 293.769 352.336 289.972 347.598C288.367 345.595 286.464 344.097 284.205 343.062C286.668 341.682 288.609 339.616 289.792 337.071C292.858 330.471 289.88 322.164 283.015 318.157C279.307 315.975 275.088 315.327 271.099 316.256C267.107 317.186 263.891 319.594 262.041 323.034C260.849 325.253 260.329 327.776 260.514 330.327C258.405 329.013 256.104 328.252 253.547 328.018C247.501 327.465 241.908 330.143 239.298 334.84C237.432 338.196 237.122 342.137 238.422 345.937C239.724 349.737 242.474 352.924 246.168 354.91C248.997 356.43 252.137 357.098 255.211 356.862L254.385 358.398C253.586 359.885 252.369 361.125 250.87 361.982L247.674 363.809C247.023 364.183 246.666 364.852 246.72 365.601C246.774 366.351 247.228 367.024 247.933 367.403L260.219 374.007C260.925 374.387 261.736 374.394 262.392 374.026C263.047 373.657 263.408 372.99 263.36 372.24L263.121 368.568C263.009 366.844 263.372 365.146 264.172 363.659L264.997 362.123C266.496 364.817 268.785 367.067 271.614 368.588C275.307 370.573 279.482 371.109 283.371 370.099C287.257 369.087 290.374 366.655 292.144 363.247ZM281.937 366.084C279.16 366.806 276.177 366.423 273.54 365.005C272.998 364.714 272.777 364.078 273.042 363.583C273.309 363.088 273.961 362.923 274.503 363.214C276.613 364.348 279 364.654 281.22 364.077C283.441 363.5 285.222 362.109 286.235 360.159C286.494 359.661 287.144 359.487 287.688 359.771L287.701 359.778C288.237 360.066 288.461 360.695 288.204 361.189C286.938 363.624 284.713 365.362 281.937 366.084Z" fill="#00DD4A" stroke="black"/>
<path d="M486 187L456 217L486 247L516 217L486 187Z" fill="#FF0000" stroke="black"/>
<path d="M31 199L1 229L31 259L61 229L31 199Z" fill="#FF0000" stroke="black"/>
<path d="M267 11L237 41L267 71L297 41L267 11Z" fill="#FF0000" stroke="black"/>
<path d="M365 100L335 130L365 160L395 130L365 100Z" fill="#FF0000" stroke="black"/>
<path d="M399.114 316.717L358.717 329.68L371.68 370.078L412.078 357.114L399.114 316.717Z" fill="#FF0000" stroke="black"/>
<path d="M130.36 131.384L150.591 164.118L180.35 139.721C183.854 136.848 186.268 132.562 187.062 127.805L187.196 127.001C188.774 117.54 183.342 108.751 175.064 107.37C170.51 106.611 165.809 108.258 162.287 111.848L158.699 115.503L156.492 110.881C154.325 106.343 150.413 103.259 145.859 102.5C137.581 101.119 129.591 107.67 128.013 117.131L127.879 117.935C127.086 122.692 127.978 127.529 130.36 131.384Z" fill="#FF0000" stroke="black"/>
<path d="M254.829 261.183L291.845 271.7L297.355 233.615C298.004 229.131 296.895 224.338 294.272 220.292L293.828 219.607C288.61 211.559 278.672 208.735 271.63 213.3C267.756 215.812 265.397 220.199 265.218 225.225L265.036 230.344L260.288 228.42C255.627 226.532 250.659 226.895 246.786 229.406C239.743 233.971 238.264 244.196 243.481 252.245L243.925 252.929C246.548 256.976 250.47 259.945 254.829 261.183Z" fill="#FF0000" stroke="black"/>
<path d="M146.795 359.149L183.811 369.665L189.321 331.581C189.97 327.096 188.861 322.304 186.237 318.257L185.794 317.573C180.576 309.525 170.638 306.701 163.595 311.266C159.722 313.777 157.363 318.165 157.184 323.19L157.001 328.309L152.254 326.386C147.593 324.498 142.625 324.86 138.751 327.371C131.709 331.937 130.23 342.162 135.447 350.211L135.891 350.895C138.514 354.941 142.436 357.91 146.795 359.149Z" fill="#FF0000" stroke="black"/>
<path d="M470.168 109.749C469.757 109.332 469.829 109.371 469.829 109.371C469.619 109.136 469.317 109 468.999 109C468.682 109 468.382 109.136 468.172 109.371C468.172 109.371 468.244 109.332 467.832 109.749C457.692 120.111 439 125.98 439 140.896C439 141.662 439.037 142.461 439.114 143.291C439.931 152.048 446.94 157.016 454.512 157.016C458.811 157.016 462.895 154.421 465.626 150.658C464.345 157.933 462.702 166.006 462.241 167.008C461.454 168.715 462.397 169 462.868 169H475.132C475.603 169 476.545 168.715 475.759 167.008C475.3 166.006 473.653 157.933 472.375 150.658C475.105 154.421 479.189 157.016 483.488 157.016C491.062 157.016 498.069 152.048 498.888 143.291C498.964 142.461 499 141.662 499 140.896C499 125.98 480.308 120.111 470.168 109.749Z" fill="#00DD4A" stroke="black"/>
<path d="M381.26 13.2906C380.98 12.7773 381.038 12.8339 381.038 12.8339C380.901 12.5503 380.648 12.3369 380.343 12.2496C380.038 12.1624 379.712 12.2101 379.445 12.3782C379.445 12.3782 379.526 12.3613 379.015 12.6484C366.416 19.8227 346.831 20.3257 342.729 34.6666C342.518 35.4031 342.334 36.1809 342.18 37.0006C340.557 45.6446 345.929 52.3482 353.21 54.4307C357.343 55.6128 361.984 54.2408 365.644 51.374C362.412 58.0158 358.612 65.3256 357.893 66.1624C356.667 67.5875 357.495 68.1208 357.948 68.2503L369.74 71.6228C370.192 71.7523 371.176 71.7374 370.891 69.88C370.724 68.7898 371.361 60.5755 372.133 53.23C373.722 57.5982 376.936 61.2165 381.068 62.3987C388.351 64.4815 396.454 61.6322 399.649 53.4379C399.951 52.6604 400.205 51.9026 400.416 51.1661C404.518 36.8253 388.16 26.0419 381.26 13.2906Z" fill="#00DD4A" stroke="black"/>
<path d="M60.9946 103.243C60.4794 102.967 60.5588 102.982 60.5588 102.982C60.2888 102.82 59.9602 102.78 59.6572 102.874C59.3542 102.968 59.107 103.186 58.9759 103.473C58.9759 103.473 59.0341 103.414 58.7638 103.934C52.1422 116.832 36.0225 127.968 40.4344 142.216C40.661 142.948 40.9326 143.7 41.2517 144.47C44.6221 152.594 52.7867 155.266 60.0208 153.026C64.127 151.755 67.261 148.068 68.7565 143.666C69.6845 150.993 70.5027 159.191 70.3584 160.285C70.1118 162.149 71.0972 162.142 71.5471 162.003L83.2624 158.375C83.7123 158.236 84.5277 157.685 83.2725 156.286C82.5366 155.465 78.5763 148.24 75.2038 141.669C78.9239 144.456 83.5931 145.727 87.6994 144.456C94.9348 142.216 100.159 135.397 98.3507 126.79C98.1783 125.974 97.9763 125.201 97.7497 124.469C93.338 110.22 73.7462 110.143 60.9946 103.243Z" fill="#00DD4A" stroke="black"/>
<path d="M393.245 222.47C393.023 221.929 393.074 221.991 393.074 221.991C392.969 221.695 392.74 221.455 392.447 221.335C392.153 221.215 391.823 221.227 391.54 221.365C391.54 221.365 391.622 221.357 391.083 221.587C377.779 227.35 358.255 225.722 352.619 239.532C352.33 240.241 352.062 240.994 351.82 241.792C349.267 250.209 353.879 257.457 360.891 260.318C364.871 261.942 369.633 261.083 373.583 258.63C369.648 264.882 365.077 271.735 364.271 272.489C362.897 273.772 363.663 274.393 364.099 274.571L375.454 279.204C375.89 279.382 376.87 279.474 376.788 277.597C376.74 276.495 378.267 268.399 379.832 261.181C380.937 265.696 383.738 269.642 387.718 271.266C394.731 274.128 403.096 272.176 407.162 264.377C407.547 263.637 407.882 262.912 408.171 262.202C413.807 248.392 398.719 235.895 393.245 222.47Z" fill="#00DD4A" stroke="black"/>
</svg>
