<svg width="647" height="360" viewBox="0 0 647 360" fill="none" xmlns="http://www.w3.org/2000/svg">
<path d="M90.0397 301.159C91.5487 298.277 91.0456 294.556 88.7559 291.679C87.788 290.463 86.6384 289.552 85.2725 288.921C86.767 288.09 87.9466 286.842 88.6678 285.304C90.5376 281.313 88.7513 276.277 84.6018 273.837C82.3611 272.508 79.8071 272.108 77.3899 272.662C74.9709 273.217 73.0183 274.669 71.8916 276.748C71.165 278.089 70.8452 279.616 70.9521 281.162C69.6775 280.362 68.2859 279.896 66.7378 279.749C63.078 279.403 59.6855 281.013 58.0955 283.852C56.9589 285.88 56.7634 288.266 57.5432 290.57C58.3239 292.874 59.9827 294.809 62.2159 296.019C63.9256 296.945 65.8257 297.356 67.6875 297.219L67.1844 298.148C66.6975 299.046 65.9584 299.795 65.0488 300.311L63.11 301.411C62.7149 301.636 62.4972 302.04 62.5284 302.494C62.5595 302.948 62.8331 303.357 63.2597 303.588L70.6858 307.612C71.113 307.843 71.6042 307.849 72.002 307.627C72.3992 307.405 72.6193 307.002 72.5914 306.548L72.4543 304.323C72.3896 303.279 72.6133 302.252 73.1003 301.353L73.6034 300.424C74.5054 302.059 75.8868 303.426 77.5971 304.353C79.8298 305.562 82.3569 305.895 84.7134 305.291C87.069 304.686 88.961 303.22 90.0397 301.159ZM83.8534 302.857C82.1703 303.289 80.3647 303.051 78.7704 302.187C78.4432 302.01 78.3102 301.624 78.4722 301.325C78.6344 301.025 79.0299 300.927 79.3571 301.104C80.6326 301.795 82.0775 301.985 83.4232 301.64C84.7694 301.295 85.8506 300.456 86.4676 299.278C86.6254 298.977 87.0195 298.872 87.3487 299.046L87.3564 299.05C87.68 299.225 87.8148 299.606 87.6581 299.905C86.8868 301.377 85.536 302.426 83.8534 302.857Z" fill="black" stroke="white"/>
<path d="M175.722 66.5777C179.082 62.226 179.342 55.8855 176.38 50.4235C175.128 48.1141 173.484 46.2598 171.397 44.8063C174.129 43.8648 176.46 42.1365 178.113 39.7885C182.401 33.6995 180.914 24.7924 174.728 19.5085C171.391 16.6366 167.259 15.2173 163.073 15.4276C158.884 15.6382 155.207 17.4778 152.719 20.6062C151.115 22.6236 150.133 25.0697 149.855 27.673C147.97 25.9661 145.791 24.7815 143.258 24.0806C137.271 22.4245 131.15 24.1042 127.668 28.359C125.178 31.3998 124.15 35.3126 124.768 39.3759C125.388 43.439 127.578 47.1487 130.937 49.8205C133.509 51.8659 136.55 53.1101 139.688 53.4311L138.577 54.8279C137.502 56.1799 136.052 57.207 134.386 57.7982L130.835 59.0564C130.111 59.3144 129.63 59.9234 129.548 60.6879C129.466 61.4524 129.801 62.2132 130.442 62.7235L141.614 71.6083C142.256 72.1194 143.072 72.2736 143.799 72.0223C144.526 71.7703 145.011 71.1641 145.098 70.4001L145.526 66.6582C145.726 64.9013 146.401 63.2577 147.477 61.9057L148.588 60.5089C149.607 63.4947 151.502 66.1766 154.075 68.2228C157.434 70.894 161.541 72.1927 165.64 71.8828C169.738 71.5708 173.319 69.6878 175.722 66.5777ZM164.927 67.5791C161.999 67.8007 159.064 66.8723 156.666 64.9649C156.174 64.5735 156.066 63.8922 156.424 63.4426C156.782 62.9922 157.469 62.9445 157.962 63.3359C159.88 64.8619 162.229 65.6046 164.57 65.4269C166.912 65.2497 168.958 64.1728 170.332 62.3937C170.684 61.9392 171.37 61.8815 171.867 62.2672L171.878 62.2764C172.365 62.6636 172.477 63.3376 172.128 63.7889C170.411 66.0104 167.854 67.3567 164.927 67.5791Z" fill="black" stroke="white"/>
<path d="M408.03 319.813C408.596 316.917 407.196 313.812 404.461 311.904C403.305 311.097 402.07 310.602 400.719 310.407C401.803 309.298 402.506 307.908 402.735 306.384C403.328 302.431 400.472 298.515 396.233 297.467C393.942 296.891 391.618 297.204 389.66 298.312C387.7 299.42 386.378 301.187 385.937 303.287C385.652 304.641 385.769 306.05 386.262 307.366C384.947 307.001 383.617 306.956 382.233 307.229C378.961 307.874 376.429 310.152 375.781 313.031C375.317 315.089 375.765 317.214 377.039 319.015C378.313 320.816 380.256 322.069 382.511 322.543C384.237 322.906 385.995 322.772 387.578 322.171L387.381 323.108C387.19 324.016 386.741 324.857 386.084 325.542L384.683 326.999C384.398 327.297 384.313 327.705 384.458 328.092C384.602 328.478 384.946 328.763 385.377 328.853L392.874 330.43C393.305 330.521 393.733 330.398 394.022 330.103C394.31 329.807 394.397 329.4 394.255 329.012L393.56 327.114C393.234 326.223 393.163 325.272 393.353 324.364L393.551 323.427C394.758 324.615 396.312 325.445 398.039 325.809C400.293 326.283 402.576 325.918 404.468 324.783C406.36 323.648 407.625 321.883 408.03 319.813ZM403.091 322.89C401.739 323.7 400.108 323.961 398.499 323.622C398.168 323.553 397.953 323.252 398.016 322.95C398.08 322.648 398.398 322.46 398.728 322.529C400.016 322.8 401.322 322.591 402.402 321.943C403.483 321.295 404.206 320.286 404.438 319.102C404.497 318.799 404.813 318.606 405.144 318.672L405.151 318.674C405.478 318.742 405.694 319.039 405.635 319.339C405.345 320.818 404.442 322.079 403.091 322.89Z" fill="black" stroke="white"/>
<path d="M243.723 111.797C241.965 109.961 239.085 109.406 236.384 110.384C235.242 110.797 234.281 111.421 233.473 112.275C233.231 110.961 232.602 109.777 231.642 108.859C229.154 106.48 224.98 106.547 222.139 109.01C220.597 110.338 219.664 112.129 219.472 114.057C219.28 115.986 219.867 117.793 221.126 119.146C221.938 120.018 222.988 120.636 224.159 120.942C223.249 121.686 222.558 122.6 222.063 123.71C220.894 126.333 221.24 129.246 222.945 131.13C224.164 132.478 225.881 133.217 227.781 133.214C229.681 133.211 231.527 132.465 232.98 131.114C234.092 130.079 234.87 128.775 235.233 127.362L235.795 127.966C236.339 128.551 236.708 129.284 236.864 130.086L237.195 131.796C237.263 132.145 237.508 132.407 237.852 132.497C238.195 132.587 238.566 132.486 238.844 132.228L243.674 127.733C243.952 127.475 244.078 127.113 244.014 126.763C243.948 126.414 243.705 126.15 243.361 126.057L241.681 125.604C240.891 125.392 240.187 124.97 239.643 124.386L239.081 123.782C240.516 123.521 241.872 122.839 242.984 121.804C244.436 120.453 245.313 118.665 245.453 116.77C245.593 114.875 244.979 113.109 243.723 111.797ZM243.437 116.8C243.337 118.153 242.711 119.431 241.674 120.396C241.461 120.594 241.142 120.596 240.961 120.402C240.78 120.207 240.805 119.889 241.018 119.691C241.848 118.92 242.349 117.897 242.429 116.815C242.509 115.732 242.158 114.723 241.439 113.972C241.256 113.78 241.276 113.462 241.487 113.262L241.492 113.257C241.702 113.061 242.018 113.057 242.2 113.247C243.098 114.185 243.537 115.447 243.437 116.8Z" fill="black" stroke="white"/>
<path d="M236.723 328.797C234.965 326.961 232.085 326.406 229.384 327.384C228.242 327.797 227.281 328.421 226.473 329.275C226.231 327.961 225.602 326.777 224.642 325.859C222.154 323.48 217.98 323.547 215.139 326.011C213.597 327.338 212.664 329.129 212.472 331.057C212.28 332.986 212.867 334.793 214.126 336.146C214.938 337.018 215.988 337.636 217.159 337.942C216.249 338.686 215.558 339.6 215.063 340.71C213.894 343.333 214.24 346.246 215.945 348.13C217.164 349.478 218.881 350.217 220.781 350.214C222.681 350.211 224.527 349.465 225.98 348.114C227.092 347.079 227.87 345.775 228.233 344.362L228.795 344.966C229.339 345.551 229.708 346.284 229.864 347.086L230.195 348.796C230.263 349.145 230.508 349.407 230.852 349.497C231.195 349.587 231.566 349.486 231.844 349.228L236.674 344.733C236.952 344.475 237.078 344.113 237.014 343.763C236.948 343.414 236.705 343.15 236.361 343.058L234.681 342.604C233.891 342.392 233.187 341.97 232.643 341.386L232.081 340.782C233.516 340.521 234.872 339.839 235.984 338.804C237.436 337.453 238.313 335.665 238.453 333.77C238.593 331.875 237.979 330.109 236.723 328.797ZM236.437 333.8C236.337 335.153 235.711 336.431 234.674 337.396C234.461 337.594 234.142 337.596 233.961 337.402C233.78 337.207 233.805 336.889 234.018 336.691C234.848 335.92 235.349 334.897 235.429 333.815C235.509 332.732 235.158 331.723 234.439 330.972C234.256 330.78 234.276 330.463 234.487 330.262L234.492 330.257C234.702 330.062 235.018 330.057 235.2 330.247C236.098 331.185 236.537 332.447 236.437 333.8Z" fill="black" stroke="white"/>
<path d="M422.187 49.2618C420.43 47.4261 417.549 46.8708 414.849 47.8487C413.707 48.2619 412.746 48.886 411.938 49.7397C411.696 48.4262 411.066 47.2419 410.107 46.3243C407.619 43.9452 403.445 44.012 400.604 46.4756C399.062 47.8031 398.129 49.594 397.937 51.5218C397.744 53.451 398.332 55.2584 399.591 56.6111C400.403 57.4834 401.453 58.1007 402.624 58.4069C401.714 59.1511 401.022 60.0653 400.528 61.1748C399.358 63.7977 399.705 66.7107 401.41 68.5955C402.628 69.9428 404.346 70.6824 406.246 70.6794C408.146 70.6758 409.992 69.9303 411.445 68.5786C412.557 67.5439 413.335 66.2397 413.698 64.8272L414.26 65.4311C414.804 66.0157 415.173 66.7494 415.329 67.5515L415.659 69.261C415.727 69.6096 415.973 69.8716 416.316 69.9618C416.66 70.0519 417.031 69.9512 417.309 69.6931L422.139 65.1985C422.417 64.94 422.543 64.5777 422.478 64.228C422.413 63.8786 422.17 63.6152 421.826 63.5226L420.145 63.0695C419.356 62.857 418.651 62.4352 418.107 61.8507L417.545 61.2467C418.98 60.9864 420.337 60.3045 421.449 59.2694C422.901 57.9182 423.778 56.1302 423.918 54.2351C424.058 52.3405 423.444 50.5741 422.187 49.2618ZM421.902 54.265C421.802 55.6185 421.175 56.8959 420.138 57.8609C419.926 58.0589 419.607 58.0611 419.426 57.8668C419.245 57.672 419.27 57.3545 419.483 57.1565C420.313 56.3846 420.814 55.3623 420.894 54.28C420.974 53.1974 420.623 52.1879 419.904 51.4372C419.72 51.2454 419.741 50.9276 419.952 50.7271L419.957 50.7224C420.167 50.5266 420.483 50.5218 420.665 50.7123C421.563 51.6503 422.002 52.9117 421.902 54.265Z" fill="black" stroke="white"/>
<path d="M99.7226 100.797C97.9648 98.961 95.0846 98.4057 92.384 99.3836C91.2422 99.7968 90.2814 100.421 89.4734 101.275C89.2312 99.9611 88.6016 98.7768 87.6422 97.8592C85.1542 95.4802 80.9805 95.5469 78.1394 98.0105C76.597 99.338 75.6638 101.129 75.4718 103.057C75.2796 104.986 75.8673 106.793 77.126 108.146C77.9377 109.018 78.9881 109.636 80.1589 109.942C79.249 110.686 78.5575 111.6 78.0628 112.71C76.8936 115.333 77.24 118.246 78.9451 120.13C80.1636 121.478 81.8813 122.217 83.7811 122.214C85.681 122.211 87.5274 121.465 88.9799 120.114C90.0919 119.079 90.87 117.775 91.2327 116.362L91.7947 116.966C92.3387 117.551 92.7083 118.284 92.8638 119.086L93.1945 120.796C93.2626 121.145 93.5079 121.407 93.8516 121.497C94.1954 121.587 94.5663 121.486 94.8437 121.228L99.6739 116.733C99.9517 116.475 100.078 116.113 100.014 115.763C99.9484 115.414 99.7047 115.15 99.3615 115.057L97.6806 114.604C96.8913 114.392 96.1865 113.97 95.6426 113.386L95.0806 112.782C96.5155 112.521 97.8719 111.839 98.9843 110.804C100.436 109.453 101.313 107.665 101.453 105.77C101.593 103.875 100.979 102.109 99.7226 100.797ZM99.4371 105.8C99.3369 107.153 98.7105 108.431 97.6735 109.396C97.4607 109.594 97.1419 109.596 96.9611 109.402C96.7798 109.207 96.8054 108.889 97.0181 108.691C97.8477 107.92 98.3489 106.897 98.4288 105.815C98.5091 104.732 98.1577 103.723 97.4391 102.972C97.2555 102.78 97.2764 102.462 97.4869 102.262L97.4919 102.257C97.7024 102.061 98.0182 102.057 98.2005 102.247C99.0977 103.185 99.537 104.447 99.4371 105.8Z" fill="black" stroke="white"/>
<path d="M454.236 224L441 237.236L454.236 250.473L467.473 237.236L454.236 224Z" fill="black" stroke="white"/>
<path d="M115.497 205.635L113.635 226.766L134.766 228.628L136.628 207.497L115.497 205.635Z" fill="black" stroke="white"/>
<path d="M308.544 14L294 28.5444L308.544 43.0889L323.089 28.5444L308.544 14Z" fill="black" stroke="white"/>
<path d="M318.933 151.762L311.875 166.213L326.325 173.271L333.384 158.821L318.933 151.762Z" fill="black" stroke="white"/>
<path d="M297.994 260.842L277.842 267.309L284.309 287.46L304.46 280.994L297.994 260.842Z" fill="black" stroke="white"/>
<path d="M230.684 215.051L278.184 228.546L285.255 179.675C286.087 173.921 284.664 167.771 281.298 162.579L280.728 161.7C274.033 151.372 261.28 147.749 252.243 153.607C247.272 156.83 244.245 162.46 244.016 168.908L243.782 175.477L237.69 173.009C231.709 170.586 225.334 171.051 220.363 174.274C211.326 180.132 209.427 193.254 216.123 203.581L216.692 204.46C220.058 209.652 225.091 213.462 230.684 215.051Z" fill="black" stroke="white"/>
<path d="M155.446 290.506L172.261 295.283L174.764 277.983C175.058 275.946 174.554 273.769 173.363 271.931L173.161 271.62C170.791 267.964 166.277 266.681 163.078 268.755C161.318 269.896 160.246 271.889 160.165 274.171L160.082 276.497L157.926 275.623C155.809 274.765 153.552 274.93 151.792 276.071C148.593 278.145 147.921 282.789 150.291 286.445L150.493 286.756C151.684 288.594 153.466 289.943 155.446 290.506Z" fill="black" stroke="white"/>
<path d="M30.8149 189.384C30.8776 189.122 30.88 189.159 30.88 189.159C30.9206 189.02 30.8999 188.868 30.8223 188.744C30.7448 188.62 30.6182 188.535 30.4749 188.511C30.4749 188.511 30.5077 188.53 30.244 188.47C23.7083 187.034 16.8409 181.151 11.0016 184.798C10.7017 184.985 10.3983 185.195 10.0919 185.428C6.86341 187.889 6.63209 191.847 8.48346 194.811C9.53434 196.494 11.5488 197.459 13.6895 197.608C10.5285 198.885 6.96639 200.215 6.46122 200.279C5.60051 200.389 5.7196 200.828 5.83473 201.012L8.83297 205.813C8.94811 205.998 9.28986 206.297 9.76624 205.572C10.0462 205.147 12.8041 202.529 15.3395 200.25C14.5337 202.238 14.5162 204.472 15.5671 206.155C17.4188 209.12 21.0767 210.648 24.7049 208.828C25.0488 208.655 25.3701 208.474 25.67 208.286C31.5093 204.64 29.2373 195.887 30.8149 189.384Z" fill="black" stroke="white"/>
<path d="M288.04 330.159C289.549 327.277 289.046 323.556 286.756 320.679C285.788 319.463 284.638 318.552 283.273 317.921C284.767 317.09 285.947 315.842 286.668 314.304C288.538 310.313 286.751 305.277 282.602 302.837C280.361 301.508 277.807 301.108 275.39 301.662C272.971 302.217 271.018 303.669 269.892 305.748C269.165 307.09 268.845 308.616 268.952 310.162C267.678 309.362 266.286 308.896 264.738 308.75C261.078 308.403 257.686 310.013 256.096 312.852C254.959 314.881 254.763 317.267 255.543 319.57C256.324 321.874 257.983 323.809 260.216 325.019C261.926 325.945 263.826 326.356 265.688 326.219L265.184 327.148C264.697 328.047 263.958 328.795 263.049 329.311L261.11 330.411C260.715 330.636 260.497 331.04 260.528 331.494C260.56 331.948 260.833 332.357 261.26 332.588L268.686 336.612C269.113 336.843 269.604 336.849 270.002 336.627C270.399 336.405 270.619 336.002 270.591 335.548L270.454 333.324C270.39 332.279 270.613 331.252 271.1 330.353L271.603 329.425C272.505 331.059 273.887 332.426 275.597 333.353C277.83 334.562 280.357 334.895 282.713 334.291C285.069 333.686 286.961 332.22 288.04 330.159ZM281.853 331.857C280.17 332.289 278.365 332.051 276.77 331.187C276.443 331.01 276.31 330.624 276.472 330.325C276.634 330.026 277.03 329.927 277.357 330.104C278.633 330.795 280.077 330.985 281.423 330.64C282.769 330.295 283.851 329.456 284.468 328.278C284.625 327.977 285.019 327.872 285.349 328.046L285.356 328.05C285.68 328.225 285.815 328.607 285.658 328.906C284.887 330.377 283.536 331.426 281.853 331.857Z" fill="black" stroke="white"/>
<path d="M367.798 80.6484C366.042 77.5887 362.347 75.8793 358.383 76.2955C356.707 76.4711 355.204 76.9912 353.831 77.8716C353.943 76.0213 353.49 74.2157 352.504 72.6594C349.946 68.624 344.301 67.3211 339.651 69.6918C337.13 70.9654 335.275 73.0666 334.373 75.5996C333.471 78.1345 333.659 80.7655 334.903 83.0078C335.706 84.4538 336.915 85.636 338.39 86.4392C336.916 87.1381 335.679 88.1389 334.642 89.4685C332.192 92.6118 331.686 96.6518 333.354 99.76C334.546 101.982 336.613 103.551 339.174 104.181C341.735 104.81 344.471 104.422 346.879 103.086C348.722 102.063 350.205 100.566 351.166 98.7842L351.721 99.7854C352.259 100.754 352.512 101.866 352.454 102.999L352.329 105.412C352.304 105.904 352.547 106.339 352.98 106.575C353.413 106.811 353.946 106.8 354.406 106.544L362.413 102.102C362.874 101.846 363.165 101.4 363.195 100.907C363.224 100.415 362.983 99.9788 362.552 99.7395L360.439 98.5681C359.446 98.0185 358.637 97.2151 358.1 96.246L357.544 95.2448C359.564 95.3731 361.619 94.9071 363.463 93.8839C365.87 92.5482 367.648 90.432 368.47 87.9259C369.29 85.42 369.052 82.8354 367.798 80.6484ZM365.743 87.2932C365.156 89.0832 363.886 90.595 362.167 91.5489C361.815 91.7446 361.384 91.6413 361.206 91.319C361.026 90.9962 361.167 90.5771 361.519 90.3813C362.895 89.6182 363.911 88.4083 364.38 86.9769C364.849 85.5452 364.713 84.0679 363.995 82.8169C363.812 82.4972 363.946 82.076 364.297 81.8762L364.305 81.8716C364.654 81.678 365.081 81.777 365.263 82.0944C366.159 83.6574 366.329 85.5034 365.743 87.2932Z" fill="black" stroke="white"/>
<path d="M461.747 135.638C456.445 130.1 447.756 128.425 439.609 131.375C436.165 132.621 433.266 134.504 430.829 137.079C430.098 133.117 428.199 129.544 425.305 126.776C417.799 119.599 405.208 119.801 396.637 127.232C391.984 131.237 389.169 136.64 388.59 142.455C388.01 148.275 389.783 153.728 393.58 157.808C396.029 160.44 399.198 162.302 402.73 163.226C399.985 165.471 397.899 168.228 396.406 171.575C392.879 179.488 393.924 188.276 399.068 193.962C402.744 198.026 407.925 200.257 413.657 200.248C419.388 200.237 424.958 197.988 429.34 193.911C432.695 190.789 435.042 186.855 436.136 182.594L437.831 184.416C439.472 186.179 440.587 188.392 441.057 190.812L442.054 195.969C442.26 197.021 442.999 197.811 444.037 198.083C445.074 198.355 446.192 198.051 447.029 197.273L461.6 183.714C462.439 182.934 462.821 181.841 462.625 180.786C462.429 179.732 461.694 178.937 460.658 178.658L455.587 177.291C453.206 176.65 451.08 175.378 449.439 173.614L447.744 171.793C452.073 171.007 456.164 168.95 459.52 165.828C463.901 161.751 466.545 156.358 466.969 150.641C467.39 144.925 465.537 139.596 461.747 135.638ZM460.886 150.731C460.584 154.814 458.694 158.668 455.566 161.578C454.924 162.176 453.962 162.183 453.417 161.596C452.87 161.009 452.947 160.051 453.589 159.454C456.092 157.125 457.603 154.041 457.844 150.776C458.087 147.51 457.027 144.465 454.859 142.2C454.305 141.621 454.368 140.663 455.003 140.058L455.018 140.044C455.653 139.453 456.606 139.439 457.156 140.013C459.862 142.843 461.188 146.648 460.886 150.731Z" fill="black" stroke="white"/>
<path d="M620.187 78.262C618.43 76.4262 615.549 75.8709 612.849 76.8488C611.707 77.2621 610.746 77.8861 609.938 78.7398C609.696 77.4263 609.066 76.242 608.107 75.3244C605.619 72.9454 601.445 73.0121 598.604 75.4757C597.062 76.8032 596.129 78.5941 595.937 80.5219C595.744 82.4511 596.332 84.2586 597.591 85.6112C598.403 86.4835 599.453 87.1008 600.624 87.407C599.714 88.1512 599.022 89.0654 598.528 90.1749C597.358 92.7978 597.705 95.7108 599.41 97.5957C600.628 98.943 602.346 99.6825 604.246 99.6796C606.146 99.6759 607.992 98.9304 609.445 97.5788C610.557 96.544 611.335 95.2398 611.698 93.8273L612.26 94.4313C612.804 95.0158 613.173 95.7495 613.329 96.5516L613.659 98.2611C613.727 98.6098 613.973 98.8718 614.316 98.9619C614.66 99.052 615.031 98.9514 615.309 98.6932L620.139 94.1986C620.417 93.9401 620.543 93.5779 620.478 93.2281C620.413 92.8788 620.17 92.6153 619.826 92.5227L618.145 92.0696C617.356 91.8572 616.651 91.4354 616.107 90.8508L615.545 90.2468C616.98 89.9866 618.337 89.3047 619.449 88.2696C620.901 86.9183 621.778 85.1304 621.918 83.2352C622.058 81.3406 621.444 79.5742 620.187 78.262ZM619.902 83.2651C619.802 84.6187 619.175 85.8961 618.138 86.861C617.926 87.059 617.607 87.0613 617.426 86.8669C617.245 86.6721 617.27 86.3547 617.483 86.1567C618.313 85.3847 618.814 84.3625 618.894 83.2801C618.974 82.1975 618.623 81.188 617.904 80.4374C617.72 80.2455 617.741 79.9277 617.952 79.7272L617.957 79.7226C618.167 79.5267 618.483 79.522 618.665 79.7125C619.563 80.6504 620.002 81.9118 619.902 83.2651Z" fill="black" stroke="white"/>
<path d="M583.236 265L570 278.236L583.236 291.473L596.473 278.236L583.236 265Z" fill="black" stroke="white"/>
<path d="M506.544 43.0001L492 57.5446L506.544 72.089L521.089 57.5446L506.544 43.0001Z" fill="black" stroke="white"/>
<path d="M576.755 201.696L569.696 216.147L584.147 223.205L591.205 208.755L576.755 201.696Z" fill="black" stroke="white"/>
<path d="M495.994 289.842L475.842 296.309L482.309 316.46L502.46 309.994L495.994 289.842Z" fill="black" stroke="white"/>
<path d="M394.493 250.836L395.525 274.69L419.03 270.5C421.798 270.007 424.404 268.418 426.275 266.083L426.591 265.689C430.313 261.045 430.036 254.64 425.972 251.384C423.737 249.593 420.693 249.06 417.698 249.936L414.648 250.828L414.854 247.656C415.056 244.543 413.873 241.687 411.638 239.896C407.574 236.64 401.263 237.765 397.542 242.409L397.225 242.803C395.354 245.138 394.371 248.028 394.493 250.836Z" fill="black" stroke="white"/>
<path d="M355.446 292.506L372.261 297.283L374.764 279.983C375.058 277.946 374.554 275.769 373.363 273.931L373.161 273.62C370.791 269.964 366.277 268.681 363.078 270.755C361.318 271.896 360.246 273.889 360.165 276.171L360.082 278.497L357.926 277.623C355.809 276.765 353.552 276.93 351.792 278.071C348.593 280.145 347.921 284.789 350.291 288.445L350.493 288.756C351.684 290.594 353.466 291.943 355.446 292.506Z" fill="black" stroke="white"/>
<path d="M626.933 131.794C626.815 131.372 626.848 131.423 626.848 131.423C626.795 131.192 626.646 130.994 626.438 130.879C626.23 130.764 625.984 130.744 625.761 130.822C625.761 130.822 625.822 130.823 625.401 130.947C614.991 134.067 600.6 131.14 595.191 140.925C594.914 141.427 594.648 141.965 594.398 142.537C591.758 148.578 594.554 154.379 599.522 157.125C602.342 158.684 605.963 158.462 609.119 156.984C605.64 161.292 601.635 165.992 600.969 166.482C599.834 167.317 600.349 167.846 600.658 168.017L608.704 172.464C609.013 172.635 609.734 172.789 609.838 171.384C609.899 170.56 611.747 164.667 613.546 159.431C613.972 162.89 615.711 166.073 618.531 167.632C623.5 170.379 629.898 169.661 633.61 164.213C633.962 163.696 634.275 163.185 634.553 162.682C639.962 152.897 629.828 142.269 626.933 131.794Z" fill="black" stroke="white"/>
<path d="M534.94 148.913C534.949 148.559 534.963 148.607 534.963 148.607C534.977 148.416 534.909 148.228 534.776 148.089C534.643 147.951 534.457 147.877 534.267 147.884C534.267 147.884 534.314 147.899 533.959 147.894C525.18 147.821 514.77 142.131 508.262 148.394C507.928 148.716 507.595 149.067 507.265 149.449C503.787 153.483 504.563 158.627 507.743 161.931C509.548 163.807 512.395 164.499 515.184 164.11C511.472 166.606 507.259 169.279 506.628 169.499C505.553 169.872 505.825 170.404 506.023 170.609L511.173 175.96C511.37 176.165 511.89 176.457 512.305 175.397C512.549 174.776 515.381 170.667 518.018 167.055C517.522 169.826 518.105 172.698 519.91 174.573C523.091 177.878 528.2 178.849 532.365 175.529C532.759 175.214 533.123 174.894 533.457 174.573C539.965 168.309 534.677 157.689 534.94 148.913Z" fill="black" stroke="white"/>
<path d="M532.798 227.236C532.855 226.971 532.858 227.009 532.858 227.009C532.896 226.868 532.872 226.717 532.791 226.594C532.711 226.472 532.582 226.39 532.438 226.368C532.438 226.368 532.472 226.387 532.206 226.333C525.631 225.04 518.626 219.303 512.861 223.084C512.565 223.278 512.266 223.494 511.964 223.735C508.787 226.27 508.643 230.237 510.562 233.164C511.652 234.826 513.69 235.746 515.836 235.848C512.7 237.197 509.164 238.608 508.659 238.683C507.8 238.812 507.929 239.249 508.048 239.431L511.157 244.17C511.276 244.352 511.625 244.644 512.085 243.908C512.356 243.476 515.059 240.794 517.547 238.457C516.784 240.465 516.816 242.701 517.906 244.363C519.825 247.29 523.521 248.739 527.113 246.836C527.453 246.655 527.771 246.467 528.067 246.273C533.832 242.493 531.363 233.781 532.798 227.236Z" fill="black" stroke="white"/>
</svg>
