<svg width="295" height="344" viewBox="0 0 295 344" fill="none" xmlns="http://www.w3.org/2000/svg">
<rect y="51.355" width="196.894" height="270" rx="25" transform="rotate(-15.119 0 51.355)" fill="white"/>
<path d="M62.2418 64.0316L52.6318 66.628C52.1204 65.4321 51.4637 64.4246 50.6616 63.6054C49.8557 62.7716 48.9356 62.1256 47.9015 61.6674C46.8674 61.2091 45.7451 60.9473 44.5347 60.882C43.3388 60.8127 42.0973 60.9519 40.8102 61.2997C38.4845 61.928 36.6147 63.0531 35.2009 64.675C33.7832 66.2822 32.8953 68.3113 32.5373 70.7623C32.1754 73.1986 32.4153 75.9745 33.2571 79.0901C34.1225 82.2934 35.3251 84.8563 36.8647 86.7789C38.4189 88.6975 40.2092 89.9795 42.2355 90.6248C44.2618 91.2701 46.4086 91.2865 48.6758 90.674C49.9483 90.3302 51.0804 89.8438 52.0719 89.215C53.078 88.5822 53.9183 87.8293 54.5928 86.9565C55.2634 86.0691 55.7501 85.0823 56.053 83.9959C56.3705 82.9057 56.477 81.7312 56.3723 80.4725L65.9941 77.92C66.3027 80.0496 66.2185 82.2068 65.7416 84.3917C65.2753 86.558 64.412 88.6197 63.1515 90.5768C61.9017 92.5153 60.2472 94.2336 58.1879 95.7317C56.1392 97.2112 53.6741 98.3402 50.7926 99.1187C46.7848 100.202 42.9561 100.263 39.3066 99.3027C35.6718 98.3386 32.4758 96.3849 29.7187 93.4415C26.9763 90.4942 24.9451 86.5778 23.6252 81.6924C22.3013 76.7923 22.0965 72.3746 23.0108 68.4393C23.9251 64.504 25.7189 61.21 28.3923 58.5573C31.0617 55.8899 34.3711 54.0227 38.3204 52.9557C40.924 52.2523 43.4363 51.9659 45.8572 52.0966C48.2927 52.2233 50.5632 52.7556 52.6685 53.6934C54.77 54.6167 56.6346 55.9414 58.2623 57.6675C59.9047 59.3896 61.2312 61.511 62.2418 64.0316Z" fill="black"/>
<path d="M50.483 100.596C50.2031 100.452 50.2472 100.46 50.2472 100.46C50.1011 100.376 49.9178 100.353 49.7443 100.4C49.5708 100.447 49.4243 100.558 49.3407 100.705C49.3407 100.705 49.3754 100.675 49.2054 100.941C45.0366 107.542 35.5917 113.194 37.5759 120.538C37.6778 120.915 37.8043 121.303 37.9568 121.701C39.5685 125.891 44.0635 127.301 48.2063 126.182C50.5578 125.547 52.447 123.665 53.4403 121.409C53.7072 125.18 53.8821 129.398 53.763 129.959C53.5597 130.916 54.1137 130.917 54.3713 130.847L61.0804 129.035C61.338 128.965 61.8153 128.686 61.1586 127.961C60.7737 127.536 58.7993 123.804 57.1325 120.412C59.1261 121.861 61.7056 122.535 64.0572 121.9C68.2008 120.78 71.3733 117.298 70.6561 112.866C70.5876 112.446 70.5009 112.047 70.399 111.67C68.415 104.326 57.4087 104.199 50.483 100.596Z" fill="black"/>
<path d="M62.2418 64.0316L52.6318 66.628C52.1204 65.4321 51.4637 64.4246 50.6616 63.6054C49.8557 62.7716 48.9356 62.1256 47.9015 61.6674C46.8674 61.2091 45.7451 60.9473 44.5347 60.882C43.3388 60.8127 42.0973 60.9519 40.8102 61.2997C38.4845 61.928 36.6147 63.0531 35.2009 64.675C33.7832 66.2822 32.8953 68.3113 32.5373 70.7623C32.1754 73.1986 32.4153 75.9745 33.2571 79.0901C34.1225 82.2934 35.3251 84.8563 36.8647 86.7789C38.4189 88.6975 40.2092 89.9795 42.2355 90.6248C44.2618 91.2701 46.4086 91.2865 48.6758 90.674C49.9483 90.3302 51.0804 89.8438 52.0719 89.215C53.078 88.5822 53.9183 87.8293 54.5928 86.9565C55.2634 86.0691 55.7501 85.0823 56.053 83.9959C56.3705 82.9057 56.477 81.7312 56.3723 80.4725L65.9941 77.92C66.3027 80.0496 66.2185 82.2068 65.7416 84.3917C65.2753 86.558 64.412 88.6197 63.1515 90.5768C61.9017 92.5153 60.2472 94.2336 58.1879 95.7317C56.1392 97.2112 53.6741 98.3402 50.7926 99.1187C46.7848 100.202 42.9561 100.263 39.3066 99.3027C35.6718 98.3386 32.4758 96.3849 29.7187 93.4415C26.9763 90.4942 24.9451 86.5778 23.6252 81.6924C22.3013 76.7923 22.0965 72.3746 23.0108 68.4393C23.9251 64.504 25.7189 61.21 28.3923 58.5573C31.0617 55.8899 34.3711 54.0227 38.3204 52.9557C40.924 52.2523 43.4363 51.9659 45.8572 52.0966C48.2927 52.2233 50.5632 52.7556 52.6685 53.6934C54.77 54.6167 56.6346 55.9414 58.2623 57.6675C59.9047 59.3896 61.2312 61.511 62.2418 64.0316Z" fill="black"/>
<path d="M50.483 100.596C50.2031 100.452 50.2472 100.46 50.2472 100.46C50.1011 100.376 49.9178 100.353 49.7443 100.4C49.5708 100.447 49.4243 100.558 49.3407 100.705C49.3407 100.705 49.3754 100.675 49.2054 100.941C45.0366 107.542 35.5917 113.194 37.5759 120.538C37.6778 120.915 37.8043 121.303 37.9568 121.701C39.5685 125.891 44.0635 127.301 48.2063 126.182C50.5578 125.547 52.447 123.665 53.4403 121.409C53.7072 125.18 53.8821 129.398 53.763 129.959C53.5597 130.916 54.1137 130.917 54.3713 130.847L61.0804 129.035C61.338 128.965 61.8153 128.686 61.1586 127.961C60.7737 127.536 58.7993 123.804 57.1325 120.412C59.1261 121.861 61.7056 122.535 64.0572 121.9C68.2008 120.78 71.3733 117.298 70.6561 112.866C70.5876 112.446 70.5009 112.047 70.399 111.67C68.415 104.326 57.4087 104.199 50.483 100.596Z" fill="black"/>
<path d="M123.506 127.83C122.963 127.549 123.048 127.566 123.048 127.566C122.765 127.401 122.409 127.358 122.072 127.449C121.735 127.54 121.451 127.756 121.289 128.041C121.289 128.041 121.356 127.984 121.026 128.5C112.934 141.313 94.5995 152.285 98.451 166.541C98.6488 167.273 98.8944 168.025 99.1905 168.797C102.319 176.932 111.045 179.669 119.086 177.496C123.651 176.263 127.318 172.611 129.247 168.231C129.765 175.551 130.104 183.738 129.873 184.829C129.478 186.686 130.554 186.688 131.054 186.553L144.077 183.034C144.578 182.899 145.504 182.356 144.229 180.95C143.482 180.124 139.649 172.881 136.414 166.295C140.284 169.108 145.291 170.417 149.856 169.183C157.899 167.01 164.058 160.252 162.666 151.648C162.533 150.832 162.364 150.059 162.166 149.326C158.315 135.071 136.95 134.824 123.506 127.83Z" fill="black"/>
<path d="M229.465 207.326L241.605 252.26L223.614 257.121C220.308 258.014 217.419 258.269 214.945 257.886C212.472 257.502 210.444 256.591 208.862 255.15C207.284 253.725 206.191 251.886 205.582 249.633C205.108 247.878 205.042 246.24 205.385 244.719C205.731 243.213 206.404 241.87 207.404 240.689C208.392 239.528 209.622 238.56 211.092 237.786L210.974 237.347C209.242 237.736 207.51 237.686 205.777 237.197C204.03 236.712 202.47 235.791 201.1 234.435C199.733 233.094 198.751 231.319 198.154 229.11C197.51 226.726 197.527 224.438 198.206 222.245C198.875 220.071 200.211 218.133 202.215 216.43C204.219 214.727 206.903 213.421 210.267 212.513L229.465 207.326ZM222.063 217.659L214.318 219.752C211.671 220.467 209.876 221.494 208.935 222.831C207.998 224.183 207.758 225.707 208.216 227.404C208.552 228.647 209.149 229.663 210.005 230.452C210.862 231.241 211.919 231.755 213.177 231.996C214.42 232.241 215.802 232.158 217.324 231.747L225.288 229.595L222.063 217.659ZM227.025 236.024L219.982 237.927C218.68 238.278 217.586 238.817 216.699 239.543C215.802 240.288 215.175 241.164 214.819 242.17C214.449 243.18 214.423 244.278 214.744 245.463C215.182 247.086 216.114 248.239 217.538 248.922C218.948 249.608 220.706 249.667 222.812 249.098L230.03 247.148L227.025 236.024Z" fill="white"/>
<path d="M212.273 209.918C212.553 210.062 212.509 210.054 212.509 210.054C212.655 210.138 212.838 210.16 213.012 210.113C213.185 210.067 213.332 209.955 213.415 209.809C213.415 209.809 213.38 209.838 213.55 209.572C217.719 202.972 227.164 197.319 225.18 189.976C225.078 189.598 224.952 189.211 224.799 188.813C223.187 184.622 218.692 183.212 214.55 184.332C212.198 184.967 210.309 186.848 209.316 189.105C209.049 185.334 208.874 181.116 208.993 180.555C209.196 179.598 208.642 179.597 208.385 179.666L201.675 181.479C201.418 181.549 200.941 181.828 201.597 182.553C201.982 182.978 203.957 186.71 205.623 190.102C203.63 188.653 201.05 187.979 198.699 188.614C194.555 189.734 191.383 193.215 192.1 197.648C192.168 198.068 192.255 198.466 192.357 198.844C194.341 206.187 205.347 206.315 212.273 209.918Z" fill="white"/>
<rect x="108.967" y="25.2746" width="194.894" height="268" rx="24" transform="rotate(19.3257 108.967 25.2746)" fill="white" stroke="black" stroke-width="2"/>
<path d="M152.513 69.659L143.119 66.3647C143.374 65.0892 143.402 63.8868 143.204 62.7577C143.011 61.6142 142.618 60.561 142.024 59.5982C141.431 58.6354 140.653 57.7847 139.692 57.0462C138.745 56.3127 137.642 55.7253 136.384 55.2841C134.111 54.4868 131.933 54.3571 129.849 54.895C127.771 55.4185 125.891 56.5896 124.21 58.4084C122.533 60.2128 121.161 62.6378 120.093 65.6832C118.995 68.8144 118.537 71.6081 118.719 74.0644C118.916 76.5257 119.667 78.5956 120.973 80.2739C122.279 81.9522 124.04 83.1799 126.256 83.9571C127.5 84.3934 128.709 84.6326 129.882 84.6748C131.07 84.722 132.189 84.5765 133.239 84.2382C134.294 83.8856 135.253 83.3471 136.117 82.6226C136.996 81.9031 137.748 80.9947 138.374 79.8975L147.752 83.2347C146.802 85.1655 145.512 86.8969 143.883 88.4289C142.274 89.9517 140.395 91.1636 138.249 92.0646C136.122 92.9564 133.786 93.4376 131.24 93.5082C128.714 93.5696 126.042 93.1063 123.226 92.1185C119.308 90.7446 116.116 88.6297 113.649 85.7737C111.197 82.9227 109.667 79.5039 109.058 75.5171C108.463 71.5354 109.003 67.1568 110.678 62.3813C112.358 57.5916 114.687 53.8326 117.667 51.1044C120.647 48.3762 123.99 46.6744 127.695 45.9988C131.405 45.309 135.19 45.641 139.05 46.9948C141.595 47.8873 143.829 49.0721 145.752 50.5492C147.689 52.0312 149.26 53.7544 150.466 55.7186C151.676 57.6686 152.465 59.8157 152.831 62.1598C153.211 64.509 153.105 67.0087 152.513 69.659Z" fill="black"/>
<path d="M122.134 93.1615C121.985 92.8841 122.016 92.916 122.016 92.916C121.944 92.7636 121.805 92.6417 121.636 92.5822C121.466 92.5227 121.282 92.5315 121.13 92.6052C121.13 92.6052 121.176 92.6004 120.885 92.7236C113.714 95.8089 102.728 95.1283 100.21 102.307C100.081 102.675 99.9662 103.067 99.8671 103.481C98.8258 107.848 101.735 111.554 105.785 112.974C108.083 113.78 110.705 113.297 112.801 111.998C110.888 115.259 108.647 118.836 108.231 119.232C107.522 119.906 107.978 120.22 108.23 120.308L114.788 122.608C115.04 122.696 115.592 122.736 115.46 121.767C115.383 121.198 115.865 117.004 116.41 113.264C117.234 115.586 118.98 117.601 121.279 118.408C125.329 119.828 129.915 118.751 131.83 114.69C132.011 114.305 132.165 113.927 132.295 113.559C134.812 106.38 125.807 100.05 122.134 93.1615Z" fill="black"/>
<path d="M152.513 69.659L143.119 66.3647C143.374 65.0892 143.402 63.8868 143.204 62.7577C143.011 61.6142 142.618 60.561 142.024 59.5982C141.431 58.6354 140.653 57.7847 139.692 57.0462C138.745 56.3127 137.642 55.7253 136.384 55.2841C134.111 54.4868 131.933 54.3571 129.849 54.895C127.771 55.4185 125.891 56.5896 124.21 58.4084C122.533 60.2128 121.161 62.6378 120.093 65.6832C118.995 68.8144 118.537 71.6081 118.719 74.0644C118.916 76.5257 119.667 78.5956 120.973 80.2739C122.279 81.9522 124.04 83.1799 126.256 83.9571C127.5 84.3934 128.709 84.6326 129.882 84.6748C131.07 84.722 132.189 84.5765 133.239 84.2382C134.294 83.8856 135.253 83.3471 136.117 82.6226C136.996 81.9031 137.748 80.9947 138.374 79.8975L147.752 83.2347C146.802 85.1655 145.512 86.8969 143.883 88.4289C142.274 89.9517 140.395 91.1636 138.249 92.0646C136.122 92.9564 133.786 93.4376 131.24 93.5082C128.714 93.5696 126.042 93.1063 123.226 92.1185C119.308 90.7446 116.116 88.6297 113.649 85.7737C111.197 82.9227 109.667 79.5039 109.058 75.5171C108.463 71.5354 109.003 67.1568 110.678 62.3813C112.358 57.5916 114.687 53.8326 117.667 51.1044C120.647 48.3762 123.99 46.6744 127.695 45.9988C131.405 45.309 135.19 45.641 139.05 46.9948C141.595 47.8873 143.829 49.0721 145.752 50.5492C147.689 52.0312 149.26 53.7544 150.466 55.7186C151.676 57.6686 152.465 59.8157 152.831 62.1598C153.211 64.509 153.105 67.0087 152.513 69.659Z" fill="black"/>
<path d="M122.134 93.1615C121.985 92.8841 122.016 92.916 122.016 92.916C121.944 92.7636 121.805 92.6417 121.636 92.5822C121.466 92.5227 121.282 92.5315 121.13 92.6052C121.13 92.6052 121.176 92.6004 120.885 92.7236C113.714 95.8089 102.728 95.1283 100.21 102.307C100.081 102.675 99.9662 103.067 99.8671 103.481C98.8258 107.848 101.735 111.554 105.785 112.974C108.083 113.78 110.705 113.297 112.801 111.998C110.888 115.259 108.647 118.836 108.231 119.232C107.522 119.906 107.978 120.22 108.23 120.308L114.788 122.608C115.04 122.696 115.592 122.736 115.46 121.767C115.383 121.198 115.865 117.004 116.41 113.264C117.234 115.586 118.98 117.601 121.279 118.408C125.329 119.828 129.915 118.751 131.83 114.69C132.011 114.305 132.165 113.927 132.295 113.559C134.812 106.38 125.807 100.05 122.134 93.1615Z" fill="black"/>
<path d="M166.951 156.923C166.662 156.385 166.723 156.446 166.723 156.446C166.582 156.15 166.313 155.914 165.984 155.798C165.655 155.683 165.298 155.7 165.003 155.843C165.003 155.843 165.091 155.834 164.527 156.073C150.606 162.062 129.281 160.741 124.394 174.676C124.143 175.391 123.92 176.151 123.727 176.955C121.706 185.433 127.354 192.625 135.215 195.382C139.676 196.947 144.766 196.009 148.834 193.488C145.121 199.818 140.77 206.761 139.963 207.53C138.587 208.838 139.473 209.448 139.961 209.619L152.692 214.084C153.181 214.255 154.252 214.332 153.996 212.451C153.847 211.347 154.783 203.206 155.84 195.945C157.44 200.454 160.829 204.365 165.291 205.93C173.154 208.687 182.055 206.597 185.773 198.714C186.125 197.966 186.424 197.233 186.675 196.518C191.562 182.583 174.082 170.295 166.951 156.923Z" fill="black"/>
<path d="M209.372 282.413L193.968 326.335L176.382 320.168C173.15 319.035 170.623 317.611 168.8 315.895C166.977 314.18 165.821 312.282 165.331 310.199C164.836 308.131 164.975 305.996 165.747 303.794C166.348 302.078 167.221 300.69 168.363 299.63C169.501 298.584 170.815 297.857 172.307 297.448C173.78 297.05 175.341 296.947 176.991 297.14L177.142 296.711C175.494 296.053 174.094 295.032 172.941 293.649C171.775 292.26 171.009 290.619 170.646 288.725C170.277 286.846 170.472 284.827 171.229 282.668C172.046 280.337 173.355 278.46 175.155 277.036C176.935 275.621 179.134 274.779 181.749 274.508C184.365 274.237 187.317 274.678 190.606 275.832L209.372 282.413ZM197.423 286.748L189.852 284.093C187.264 283.185 185.204 283.017 183.671 283.587C182.133 284.172 181.074 285.294 180.492 286.952C180.066 288.167 179.983 289.342 180.243 290.477C180.504 291.612 181.084 292.635 181.985 293.545C182.872 294.45 184.059 295.163 185.546 295.685L193.331 298.415L197.423 286.748ZM191.127 304.699L184.243 302.285C182.97 301.838 181.763 301.664 180.621 301.761C179.46 301.868 178.448 302.235 177.585 302.864C176.708 303.488 176.067 304.379 175.66 305.537C175.104 307.124 175.22 308.601 176.008 309.97C176.783 311.333 178.199 312.376 180.258 313.098L187.314 315.572L191.127 304.699Z" fill="black"/>
<path d="M193.727 274.826C193.877 275.104 193.845 275.072 193.845 275.072C193.918 275.224 194.056 275.346 194.226 275.406C194.395 275.465 194.579 275.456 194.731 275.383C194.731 275.383 194.686 275.388 194.976 275.264C202.147 272.179 213.133 272.86 215.651 265.681C215.78 265.313 215.895 264.921 215.994 264.507C217.035 260.14 214.126 256.434 210.077 255.014C207.778 254.208 205.156 254.691 203.061 255.99C204.973 252.729 207.215 249.152 207.63 248.756C208.339 248.082 207.883 247.768 207.631 247.68L201.073 245.38C200.821 245.292 200.27 245.252 200.401 246.221C200.478 246.79 199.996 250.984 199.452 254.724C198.627 252.402 196.881 250.387 194.582 249.58C190.532 248.16 185.947 249.237 184.031 253.298C183.85 253.683 183.696 254.061 183.567 254.429C181.049 261.608 190.054 267.938 193.727 274.826Z" fill="black"/>
</svg>
