<svg width="62" height="62" viewBox="0 0 62 62" fill="none" xmlns="http://www.w3.org/2000/svg">
<path d="M60.9986 36.4064C60.922 31.0341 57.2642 26.0269 51.6765 23.6514C49.3144 22.6467 46.9288 22.2288 44.4488 22.3864C45.9654 20.0048 46.6966 17.2653 46.5333 14.4637C46.1088 7.19893 39.5533 1.29178 31.6089 1.01312C27.31 0.846374 23.2867 2.27412 20.2134 4.98102C17.1379 7.69004 15.4446 11.3336 15.4446 15.2395C15.4446 17.7583 16.1813 20.2264 17.5523 22.3863C15.0724 22.2276 12.6858 22.6467 10.3223 23.6513C4.73568 26.0268 1.07689 31.034 1.00135 36.4063C0.946933 40.2461 2.54023 43.8642 5.4847 46.5956C8.43019 49.326 12.3613 50.8311 16.5557 50.8311C19.7667 50.8311 22.849 49.9331 25.4445 48.2695V50.0135C25.4445 51.7015 24.96 53.3692 24.0456 54.8346L22.0956 57.9564C21.6989 58.594 21.7011 59.3527 22.1034 59.9872C22.5057 60.6217 23.2245 61 24.0256 61H37.9733C38.7756 61 39.4933 60.6217 39.8967 59.9872C40.2989 59.3527 40.3012 58.594 39.9034 57.9564L37.9545 54.8346C37.0389 53.3692 36.5556 51.7015 36.5556 50.0135V48.2695C39.1512 49.9331 42.2322 50.8311 45.4444 50.8311C49.6378 50.8311 53.5688 49.3261 56.5154 46.5956C59.4598 43.8644 61.0531 40.2462 60.9986 36.4064ZM53.352 43.7383C51.2476 45.6886 48.4387 46.7636 45.4443 46.7636C44.8299 46.7636 44.3332 46.308 44.3332 45.7467C44.3332 45.1843 44.8299 44.7297 45.4443 44.7297C47.8399 44.7297 50.0876 43.8694 51.7699 42.3095C53.4532 40.7495 54.3631 38.6812 54.332 36.4847C54.3242 35.9234 54.8142 35.4617 55.4286 35.4546H55.4431C56.0509 35.4546 56.5464 35.902 56.5542 36.4593C56.592 39.2029 55.4554 41.7878 53.352 43.7383Z" fill="white" stroke="black"/>
<rect x="40" y="31" width="19" height="18" rx="9" fill="white"/>
</svg>
