<svg width="60" height="60" viewBox="0 0 60 60" fill="none" xmlns="http://www.w3.org/2000/svg">
<path d="M59.9986 35.4064C59.922 30.0341 56.2642 25.0269 50.6765 22.6514C48.3144 21.6467 45.9288 21.2288 43.4488 21.3864C44.9654 19.0048 45.6966 16.2653 45.5333 13.4637C45.1088 6.19893 38.5533 0.291783 30.6089 0.0131243C26.31 -0.153626 22.2867 1.27412 19.2134 3.98102C16.1379 6.69004 14.4446 10.3336 14.4446 14.2395C14.4446 16.7583 15.1813 19.2264 16.5523 21.3863C14.0724 21.2276 11.6858 21.6467 9.32232 22.6513C3.73568 25.0268 0.0768911 30.034 0.00134915 35.4063C-0.0530666 39.2461 1.54023 42.8642 4.4847 45.5956C7.43019 48.326 11.3613 49.8311 15.5557 49.8311C18.7667 49.8311 21.849 48.9331 24.4445 47.2695V49.0135C24.4445 50.7015 23.96 52.3692 23.0456 53.8346L21.0956 56.9564C20.6989 57.594 20.7011 58.3527 21.1034 58.9872C21.5057 59.6217 22.2245 60 23.0256 60H36.9733C37.7756 60 38.4933 59.6217 38.8967 58.9872C39.2989 58.3527 39.3012 57.594 38.9034 56.9564L36.9545 53.8346C36.0389 52.3692 35.5556 50.7015 35.5556 49.0135V47.2695C38.1512 48.9331 41.2322 49.8311 44.4444 49.8311C48.6378 49.8311 52.5688 48.3261 55.5154 45.5956C58.4598 42.8644 60.0531 39.2462 59.9986 35.4064ZM52.352 42.7383C50.2476 44.6886 47.4387 45.7636 44.4443 45.7636C43.8299 45.7636 43.3332 45.308 43.3332 44.7467C43.3332 44.1843 43.8299 43.7297 44.4443 43.7297C46.8399 43.7297 49.0876 42.8694 50.7699 41.3095C52.4532 39.7495 53.3631 37.6812 53.332 35.4847C53.3242 34.9234 53.8142 34.4617 54.4286 34.4546H54.4431C55.0509 34.4546 55.5464 34.902 55.5542 35.4593C55.592 38.2029 54.4554 40.7878 52.352 42.7383Z" fill="white"/>
<rect x="39" y="30" width="19" height="18" rx="9" fill="white"/>
</svg>
