<svg width="733" height="800" viewBox="0 0 733 800" fill="none" xmlns="http://www.w3.org/2000/svg">
<path d="M732.157 472.085C731.221 400.454 686.586 333.692 618.4 302.018C589.575 288.622 560.464 283.05 530.201 285.152C548.708 253.397 557.631 216.871 555.638 179.516C550.458 82.6522 470.462 3.89043 373.517 0.17499C321.059 -2.04834 271.963 16.9882 234.46 53.0802C196.929 89.2003 176.266 137.781 176.266 189.859C176.266 223.444 185.256 256.352 201.986 285.15C171.724 283.035 142.6 288.622 113.759 302.017C45.5861 333.69 0.938294 400.452 0.0164636 472.083C-0.647567 523.281 18.7952 571.522 54.7263 607.941C90.6698 644.345 138.641 664.413 189.824 664.413C229.008 664.413 266.621 652.44 298.294 630.258V653.512C298.294 676.019 292.382 698.255 281.223 717.793L257.427 759.418C252.587 767.919 252.614 778.034 257.523 786.494C262.432 794.955 271.203 799.998 280.979 799.998H451.182C460.972 799.998 469.729 794.955 474.653 786.494C479.56 778.034 479.588 767.919 474.734 759.418L450.952 717.793C439.779 698.255 433.881 676.019 433.881 653.512V630.258C465.555 652.44 503.153 664.413 542.351 664.413C593.522 664.413 641.491 644.347 677.449 607.941C713.378 571.524 732.821 523.282 732.157 472.085ZM638.846 569.843C613.166 595.847 578.89 610.18 542.349 610.18C534.851 610.18 528.791 604.105 528.791 596.621C528.791 589.123 534.851 583.062 542.349 583.062C571.582 583.062 599.011 571.591 619.539 550.792C640.081 529.993 651.185 502.415 650.805 473.128C650.71 465.644 656.689 459.489 664.187 459.393H664.364C671.781 459.393 677.827 465.359 677.922 472.789C678.383 509.37 664.514 543.836 638.846 569.843Z" fill="#00C01D"/>
<rect x="460" y="414" width="217" height="199" rx="41" fill="#00C01D"/>
</svg>
