<svg width="725" height="800" viewBox="0 0 725 800" fill="none" xmlns="http://www.w3.org/2000/svg">
<path d="M376.406 9.98125C371.45 4.42813 372.311 4.94062 372.311 4.94062C369.775 1.80781 366.128 0 362.297 0C358.467 0 354.834 1.80781 352.298 4.94062C352.298 4.94062 353.178 4.42813 348.203 9.98125C225.741 148.145 0 226.405 0 425.284C0 435.498 0.448438 446.144 1.37656 457.219C11.2406 573.978 95.8844 640.216 187.341 640.216C239.253 640.216 288.58 605.612 321.558 555.442C306.087 652.436 286.242 760.075 280.67 773.439C271.169 796.203 282.561 800.002 288.248 800.002H436.359C442.047 800.002 453.42 796.203 443.936 773.439C438.381 760.075 418.502 652.436 403.067 555.442C436.028 605.612 485.353 640.216 537.267 640.216C628.741 640.216 713.366 573.978 723.248 457.219C724.175 446.144 724.606 435.498 724.606 425.284C724.609 226.405 498.869 148.145 376.406 9.98125Z" fill="#00C01D"/>
</svg>
