<svg width="60" height="60" viewBox="0 0 60 60" fill="none" xmlns="http://www.w3.org/2000/svg">
<path d="M31.1678 0.748592C30.7574 0.332109 30.8287 0.370546 30.8287 0.370546C30.6187 0.135586 30.3167 0 29.9995 0C29.6824 0 29.3816 0.135586 29.1716 0.370546C29.1716 0.370546 29.2444 0.332109 28.8325 0.748592C18.6921 11.1109 0 16.9803 0 31.8963C0 32.6623 0.0371323 33.4607 0.113984 34.2913C0.930764 43.0483 7.93957 48.0161 15.5125 48.0161C19.811 48.0161 23.8954 45.4209 26.6261 41.6581C25.3451 48.9326 23.7019 57.0055 23.2405 58.0078C22.4537 59.7151 23.3971 60 23.868 60H36.1321C36.6031 60 37.5448 59.7151 36.7595 58.0078C36.2995 57.0055 34.6534 48.9326 33.3754 41.6581C36.1047 45.4209 40.189 48.0161 44.4877 48.0161C52.062 48.0161 59.0692 43.0483 59.8876 34.2913C59.9643 33.4607 60 32.6623 60 31.8963C60.0003 16.9803 41.3081 11.1109 31.1678 0.748592Z" fill="#08A720"/>
</svg>
